<svg xmlns="http://www.w3.org/2000/svg" viewBox="0 18.812179565429688 222.85533142089844 43.799068450927734" data-asc="1.169" width="222.85533142089844" height="43.799068450927734"><defs/><g fill="#bf0fff"><g transform="translate(0, 0)"><path d="M27.15 47.75Q25.15 49.25 22.98 49.93Q20.80 50.60 18.65 50.30Q16.50 50 14.95 48.45Q13.55 52.90 13.05 57.25Q12.85 58.05 12.35 58.70Q11.45 61.35 8.40 62.25Q5.40 63.10 2.80 61.95Q1.60 61.40 0.80 60.35Q0 59.30 0 57.80Q3.45 45.85 6.65 38.20Q7.35 36.60 7.78 35.60Q8.20 34.60 8.55 33.90Q8.90 33.20 9.18 32.67Q9.45 32.15 9.85 31.50Q10.75 30 11.93 27.98Q13.10 25.95 13.93 24.95Q14.75 23.95 15.68 23.23Q16.60 22.50 17.73 21.85Q18.85 21.20 20.55 20.15Q22.25 19.10 24.18 18.88Q26.10 18.65 27.85 19.20Q31.55 20.35 33.30 24.35Q34.80 28.05 33.80 34.30Q32.25 43.85 27.15 47.75M16.70 43.30Q20.80 42.40 22.40 37.95Q23.75 34.20 22.95 29.45Q21.80 31.40 20.88 33.50Q19.95 35.60 19.20 37.25Q17.55 40.95 16.70 43.30ZM59.45 24.55Q61.15 25.45 61.60 27.20Q60.60 32.80 59.80 38.33Q59 43.85 58.25 47.58Q57.50 51.30 57.23 53.15Q56.95 55 56.60 56.85L56.30 57.90Q56.20 58.45 56.10 58.93Q56 59.40 55.90 59.95Q54.50 61.55 52.10 61.55Q49.55 61.55 48.05 60.25Q47.15 59.55 47.75 57.30Q48 56.40 48.08 54.98Q48.15 53.55 48.25 52.60L48.25 52.50Q46.75 53.05 45.55 53.93Q44.35 54.80 44.05 55.03Q43.75 55.25 43.25 55.38Q42.75 55.50 42.35 55.55Q41.40 55.60 41.05 55.85Q38.15 61.05 35.85 61.65Q34.40 62.10 32.95 61.88Q31.50 61.65 30.65 60.15Q29.05 58.65 31.45 51.95Q32.75 48.40 35.17 43.43Q37.60 38.45 39.85 34.75Q44.70 26.80 50.50 21.35Q51.45 20.95 52.55 20.43Q53.65 19.90 54.73 19.85Q55.80 19.80 56.95 20.10Q58.10 20.40 58.90 21Q60.75 22.40 59.45 24.55M48.75 37.70Q47.70 40.70 46.65 43.23Q45.60 45.75 44.85 47.65L48.80 47.50Q49.20 44.30 49.70 41.15Q50.20 38 50.65 34.85L48.75 37.70M47.40 47.70Q48.10 47.70 48.80 47.60L48.80 47.55Q48.15 47.60 47.60 47.65Q47.05 47.70 47.40 47.70ZM68.75 58.60Q68.30 60.60 65.65 61.05Q63.20 61.50 61 60.50Q58.55 59.45 58.85 57.55Q58.55 54.65 61.90 44.95Q66.90 30.40 71.90 24.15Q73.20 22.55 74.13 22.08Q75.05 21.60 76.25 21.20Q77.45 20.80 78.75 20.45Q81.35 19.75 83.67 19.48Q86 19.20 87.85 20.02Q89.70 20.85 90.72 22.45Q91.75 24.05 92 26.23Q92.25 28.40 91.85 30.78Q91.45 33.15 90.40 35.58Q89.35 38 87.75 40.10Q84.25 44.70 79.55 46.05L80.05 46.90Q80.70 47.90 81.63 49.10Q82.55 50.30 83.47 51.55Q84.40 52.80 85.15 54.05Q85.90 55.30 86.25 56.40Q87.05 58.85 85 59.95Q83.35 60.95 82.40 60.45Q82 60.20 81.60 59.83Q81.20 59.45 80.50 59.20Q77.55 60.05 76 57.70Q75.05 56.20 74.55 54.95Q74.05 53.70 73.70 52.85Q72.80 51 71.65 49.65Q71.10 51 70.40 53.10Q69.55 55.75 68.50 58.60L68.75 58.60M78.85 29.50Q77.90 31.65 77.55 32.50Q76.85 34.20 76 36.25Q75.85 37.35 75.75 37.80L76.45 37.10L77.30 36.70Q78.20 36.20 78.95 35.80Q79.70 35.40 80.30 34.80Q81.45 33.65 82.30 31.05Q82.30 30.55 82.47 30.05Q82.65 29.55 82.70 29.05Q82.90 27.95 81.80 27.50Q80.80 27.40 79.30 29.15Q79 29.50 78.85 29.50ZM116.75 24.55Q118.45 25.45 118.90 27.20Q117.90 32.80 117.10 38.33Q116.30 43.85 115.55 47.58Q114.80 51.30 114.52 53.15Q114.25 55 113.90 56.85L113.60 57.90Q113.50 58.45 113.40 58.93Q113.30 59.40 113.20 59.95Q111.80 61.55 109.40 61.55Q106.85 61.55 105.35 60.25Q104.45 59.55 105.05 57.30Q105.30 56.40 105.38 54.98Q105.45 53.55 105.55 52.60L105.55 52.50Q104.05 53.05 102.85 53.93Q101.65 54.80 101.35 55.03Q101.05 55.25 100.55 55.38Q100.05 55.50 99.65 55.55Q98.70 55.60 98.35 55.85Q95.45 61.05 93.15 61.65Q91.70 62.10 90.25 61.88Q88.80 61.65 87.95 60.15Q86.35 58.65 88.75 51.95Q90.05 48.40 92.47 43.43Q94.90 38.45 97.15 34.75Q102 26.80 107.80 21.35Q108.75 20.95 109.85 20.43Q110.95 19.90 112.02 19.85Q113.10 19.80 114.25 20.10Q115.40 20.40 116.20 21Q118.05 22.40 116.75 24.55M106.05 37.70Q105 40.70 103.95 43.23Q102.90 45.75 102.15 47.65L106.10 47.50Q106.50 44.30 107 41.15Q107.50 38 107.95 34.85L106.05 37.70M104.70 47.70Q105.40 47.70 106.10 47.60L106.10 47.55Q105.45 47.60 104.90 47.65Q104.35 47.70 104.70 47.70ZM148.40 38.15Q148.20 40.30 147.63 42.55Q147.05 44.80 145.97 46.95Q144.90 49.10 143.43 51.10Q141.95 53.10 140.15 54.80Q138.35 56.50 136.30 57.65Q131.90 60.25 127.80 59.50Q126.90 61.45 125.13 61.98Q123.35 62.50 121.63 61.98Q119.90 61.45 118.60 60Q117.30 58.55 117.30 56.03Q117.30 53.50 117.65 50.85Q118 48.20 118.60 45.75Q119.55 41.70 120.95 38.15Q124.25 30.10 124.70 26.85Q125.35 22.50 127.10 21.45Q130 19.75 132.60 20Q135.20 20.25 137.30 21.25Q140.75 22.90 144.75 26.80Q149.15 31.05 148.40 38.15M128.75 53.15Q131.30 51.85 132.88 50.48Q134.45 49.10 135.85 47.95Q138 45.80 139 42.85Q141.20 36.35 136.20 33Q135.45 32.45 133.95 31.50Q133.25 33.10 132.93 34.85Q132.60 36.60 132.05 38.25L130.70 42.65L129.60 47.40Q129.50 48.40 129.30 49.33Q129.10 50.25 128.95 51.25L128.75 53.15ZM168.10 24.65Q166.35 30.10 164.88 34.50Q163.40 38.90 162.18 42.60Q160.95 46.30 159.90 49.43Q158.85 52.55 157.95 55.40Q157.45 58.70 154.70 60.05Q153.10 60.80 150.90 60.80Q148.70 60.80 147.60 60.33Q146.50 59.85 146.18 58.95Q145.85 58.05 146.18 56.78Q146.50 55.50 147.30 53.28Q148.10 51.05 149.32 47.25Q150.55 43.45 151.90 39.55Q155.25 29.80 157.20 26.05Q157.95 24.65 158.70 24.18Q159.45 23.70 160.15 23.48Q160.85 23.25 161.45 22.95Q162.05 22.65 162.53 21.45Q163 20.25 164.28 19.80Q165.55 19.35 166.68 19.73Q167.80 20.10 168.38 21.33Q168.95 22.55 168.10 24.65ZM173.65 61.35Q171.10 61.45 168.97 60.73Q166.85 60 165.53 58.75Q164.20 57.50 163.85 55.83Q163.50 54.15 164.45 52.40Q165.75 50.30 169.65 51.15Q172.60 51.75 173.72 51.80Q174.85 51.85 175.65 51.50Q179.30 50.30 179.75 48.90Q180.05 47.85 178.45 46.45Q177.80 45.85 177 45.25Q176.20 44.65 175.65 44.05Q173.15 42.20 171.72 39.78Q170.30 37.35 170.55 34.50Q170.80 31.65 171.50 29.78Q172.20 27.90 173.25 26.45Q175.10 23.90 178.05 22.30Q181.45 20.55 183.50 20.05Q187.55 19.15 191.70 19.90Q193.10 20.15 194.10 20.85Q195.10 21.55 196.10 22.30Q197.85 24.05 196.95 25.85Q196.60 26.65 195.85 27.15Q195.10 27.65 194.25 27.70Q194.35 29.05 193.75 29.70Q192.60 30.85 189.75 31.20Q185.65 30.90 184.20 31.65Q182.50 32.55 182.95 35.55Q183.05 36.20 183.78 36.90Q184.50 37.60 185.47 38.40Q186.45 39.20 187.53 40.20Q188.60 41.20 189.40 42.50Q192.20 47.10 188.95 53.25Q186.55 57.85 180.75 60.15Q177.75 61.35 173.65 61.35ZM204.25 52.15Q207.15 52.45 208.57 52.45Q210 52.45 212.90 52.05Q213.80 52.35 213.95 52.80Q214.10 53.25 214.05 53.73Q214 54.20 214.10 54.65Q214.20 55.10 215.05 55.40Q215.50 55.55 215.32 56.28Q215.15 57 214.50 57.85Q212.85 60 210.60 60.85Q207 61.75 204.95 61.90Q201.55 62.15 197.55 61.65Q193.15 60.85 193.30 58Q193.30 47.50 197.90 36.90Q199.40 33.45 201.30 29.65Q201.70 28.85 201.77 27.85Q201.85 26.85 201.90 25.90Q201.95 24.95 202.20 24.20Q202.45 23.45 203.25 23.15Q213.65 19 219.70 19.95Q221.80 20 222.47 21.38Q223.15 22.75 222.63 24.45Q222.10 26.15 220.57 27.65Q219.05 29.15 216.75 29.50Q213.80 30.35 213.15 30.65Q211.90 31.25 211.35 32.25Q210.65 33.35 210.05 34.35Q209.45 35.35 209.20 36.50L209 37.60Q209.95 38.05 211.32 37.88Q212.70 37.70 213.88 37.53Q215.05 37.35 215.77 37.50Q216.50 37.65 216.07 38.98Q215.65 40.30 214.52 41.95Q213.40 43.60 211.35 44.35Q210.05 44.60 209.57 44.73Q209.10 44.85 208.85 44.90Q208.50 44.95 206.85 45.05Q204.50 49.05 204 51.25Q203.80 52.15 204.25 52.15Z"/></g></g></svg>